<svg xmlns="http://www.w3.org/2000/svg" width="119" height="64">
    <path fill="#333" fill-rule="evenodd" d="M29.346 63.612c-.705 0-1.386-.298-1.867-.817-.481-.52-.719-1.194-.667-1.897.273-3.734 1.176-7.366 2.683-10.797l.105-.242H3.406c-.664 0-1.309-.274-1.771-.752-.462-.476-.705-1.102-.686-1.76.026-.859.108-1.698.261-2.641 1.571-9.708 8.603-17.867 18.024-21.008l-.311-.214c-4.535-3.112-6.539-8.778-4.986-14.098C15.319 4.655 19.536 1.064 24.43.452c.537-.067 1.078-.101 1.612-.101 6.964 0 12.63 5.684 12.63 12.671 0 4.183-2.06 8.095-5.51 10.462l-.296.204.345.103c5.186 1.548 9.829 4.851 13.073 9.3l.082.111.115-.05c1.196-.522 2.435-.975 3.685-1.348l.344-.103-.297-.204c-5.988-4.11-8.595-11.582-6.487-18.593 1.879-6.248 7.287-10.79 13.777-11.571.675-.081 1.359-.122 2.032-.122 9.117 0 16.535 7.441 16.535 16.588 0 5.478-2.697 10.598-7.214 13.698l-.296.204.344.103c1.214.362 2.429.805 3.613 1.317l.125.055.081-.111c3.244-4.435 7.881-7.729 13.056-9.274l.344-.103-.295-.204c-4.536-3.112-6.54-8.778-4.986-14.098C82.224 4.655 86.44 1.064 91.335.452c.536-.067 1.077-.101 1.612-.101 6.964 0 12.629 5.684 12.629 12.671 0 4.184-2.059 8.095-5.508 10.462l-.308.212c9.364 3.084 16.392 11.21 18.002 20.897.157.946.244 1.783.275 2.634.025.686-.227 1.339-.707 1.838-.485.505-1.164.794-1.863.794H89.47l.105.242c1.412 3.216 2.296 6.614 2.624 10.1.083.879-.206 1.756-.795 2.405-.589.649-1.395 1.006-2.269 1.006H29.346zm58.819-3.954l-.027-.195c-1.775-13.204-12.589-23.629-25.793-24.932-.31 2.005-.69 7.327 2.653 12.694l.167.268-4.505 5.273c-.291.342-.716.538-1.165.538-.448 0-.873-.196-1.166-.538l-4.505-5.273.167-.268c3.343-5.365 2.964-10.683 2.654-12.688-13.161 1.337-23.942 11.76-25.713 24.926l-.027.195h57.26zm25.847-13.752l-.02-.19c-1.122-10.843-10.169-19.019-21.045-19.019-6.515 0-12.575 2.971-16.629 8.151l-.119.154.166.1c4.415 2.652 8.198 6.36 10.942 10.724l.051.08h26.654zm-82.3 0l.05-.08c2.72-4.336 6.47-8.024 10.846-10.665l.21-.126-.119-.153c-4.053-5.202-10.124-8.185-16.656-8.185-10.875 0-19.923 8.176-21.046 19.019l-.02.19h26.735zM59.535 5.164c-6.944 0-12.594 5.669-12.594 12.635 0 6.967 5.65 12.636 12.594 12.636 6.944 0 12.593-5.669 12.593-12.636 0-6.966-5.649-12.635-12.593-12.635zm33.412-.859c-4.791 0-8.688 3.91-8.688 8.717 0 4.806 3.897 8.717 8.688 8.717s8.689-3.911 8.689-8.717c0-4.807-3.898-8.717-8.689-8.717zm-66.904 0c-4.791 0-8.689 3.91-8.689 8.717 0 4.806 3.898 8.717 8.689 8.717s8.688-3.911 8.688-8.717c0-4.807-3.897-8.717-8.688-8.717z"/>
</svg>
