<svg xmlns="http://www.w3.org/2000/svg" width="48" height="48">
    <path fill="#333" fill-rule="evenodd" d="M47.298 44.078c.737.734.737 1.925 0 2.659-.368.367-.85.55-1.333.55s-.965-.183-1.334-.55l-4.888-4.874c-.048-.048-.067-.112-.109-.163-2.177 1.58-4.847 2.524-7.74 2.524-7.278 0-13.199-5.904-13.199-13.159 0-7.256 5.921-13.159 13.199-13.159 7.277 0 13.197 5.903 13.197 13.159 0 3.04-1.049 5.835-2.792 8.066.034.029.078.04.111.073l4.888 4.874zM31.894 21.039c-5.546 0-10.057 4.498-10.057 10.026s4.511 10.026 10.057 10.026c5.544 0 10.055-4.498 10.055-10.026s-4.511-10.026-10.055-10.026zm-21.686 6.566h5.029c1.041 0 1.886.841 1.886 1.88 0 1.038-.845 1.88-1.886 1.88h-5.029c-1.04 0-1.885-.842-1.885-1.88 0-1.039.845-1.88 1.885-1.88zM8.323 14.446c0-1.038.845-1.88 1.885-1.88h15.085c1.042 0 1.886.842 1.886 1.88 0 1.038-.844 1.88-1.886 1.88H10.208c-1.04 0-1.885-.842-1.885-1.88zm8.8 9.399h-6.915c-1.04 0-1.885-.841-1.885-1.88 0-1.038.845-1.879 1.885-1.879h6.915c1.041 0 1.885.841 1.885 1.879 0 1.039-.844 1.88-1.885 1.88zm18.225-19.37c0-.376-.305-.681-.682-.681H4.607c-.377 0-.683.305-.683.681v38.114c0 .376.306.681.683.681h16.915v3.133H4.607c-2.113 0-3.826-1.708-3.826-3.814V4.475C.781 2.368 2.494.66 4.607.66h30.059c2.113 0 3.826 1.708 3.826 3.815v11.851h-3.144V4.475z"/>
</svg>
