<svg xmlns="http://www.w3.org/2000/svg" width="53" height="50">
    <path fill="#202931" fill-rule="evenodd" d="M51.676 24.813l-7.486 6.933c-.55.51-1.403.486-1.925-.053l-4.786-4.946c-.617-.636-.604-1.656.028-2.276.632-.621 1.645-.608 2.261.029l3.556 3.674 6.187-5.731c.65-.603 1.662-.56 2.26.095v.001c.597.654.555 1.673-.095 2.274zM22.11 26.739c-7.152 0-12.95-5.84-12.95-13.044C9.16 6.491 14.958.652 22.11.652c7.153 0 12.951 5.839 12.951 13.043 0 7.204-5.798 13.044-12.951 13.044zm0-22.867c-5.377 0-9.752 4.407-9.752 9.823 0 5.417 4.375 9.823 9.752 9.823 5.378 0 9.752-4.406 9.752-9.823 0-5.416-4.374-9.823-9.752-9.823zm6.973 27.376c7.892 0 14.291 6.445 14.291 14.395v3.64h-3.198v-3.64c0-6.162-4.976-11.175-11.093-11.175H14.818c-6.117 0-11.093 5.013-11.093 11.175v3.64H.527v-3.64c0-7.95 6.399-14.395 14.291-14.395h14.265z"/>
</svg>
