<svg xmlns="http://www.w3.org/2000/svg" width="54" height="42">
    <path fill="#333" fill-rule="evenodd" d="M49.398 41.79H4.6c-2.242 0-4.062-1.818-4.062-4.061V4.27C.538 2.028 2.358.21 4.6.21h44.798c2.243 0 4.061 1.818 4.061 4.06v33.459c0 2.243-1.818 4.061-4.061 4.061zm.911-37.52c0-.502-.409-.91-.911-.91H4.6c-.502 0-.911.408-.911.91v33.459c0 .502.409.911.911.911h44.798c.502 0 .911-.409.911-.911V4.27zm-4.732 29.96H28.266c-1.135 0-2.055-.92-2.055-2.055V29.08c0-3.767 3.054-6.82 6.821-6.82h7.779c3.767 0 6.821 3.053 6.821 6.82v3.095c0 1.135-.921 2.055-2.055 2.055zm-1.095-5.15c0-2.024-1.647-3.67-3.671-3.67h-7.779c-2.024 0-3.67 1.646-3.67 3.67v2h15.12v-2zM36.922 21c-3.654 0-6.616-2.962-6.616-6.615 0-3.654 2.962-6.615 6.616-6.615 3.653 0 6.614 2.961 6.614 6.615 0 3.653-2.961 6.615-6.614 6.615zm0-10.08c-1.911 0-3.465 1.554-3.465 3.465 0 1.91 1.554 3.465 3.465 3.465 1.91 0 3.464-1.555 3.464-3.465 0-1.911-1.554-3.465-3.464-3.465zm-13.703 4.41h-11.97c-1.043 0-1.89-.846-1.89-1.891 0-1.043.847-1.889 1.89-1.889h11.97c1.044 0 1.89.846 1.89 1.889 0 1.045-.846 1.891-1.89 1.891zm-11.97 3.78h8.19c1.044 0 1.89.846 1.89 1.89 0 1.043-.846 1.89-1.89 1.89h-8.19c-1.043 0-1.89-.847-1.89-1.89 0-1.044.847-1.89 1.89-1.89zm0 7.56h8.19c1.044 0 1.89.846 1.89 1.89s-.846 1.89-1.89 1.89h-8.19c-1.043 0-1.89-.846-1.89-1.89s.847-1.89 1.89-1.89z"/>
</svg>
