<svg xmlns="http://www.w3.org/2000/svg" width="46" height="47">
    <path fill="#202931" fill-rule="evenodd" d="M44.937 27.846L29.888 42.843h-7.411v-7.384l15.05-14.997c.32-.319.74-.479 1.16-.479.42 0 .84.16 1.161.479l5.089 5.072c.64.638.64 1.674 0 2.312zm-6.25-4.085L25.639 36.763v2.93h2.94L41.626 26.69l-2.939-2.929zM34.994 4.339c0-.377-.309-.684-.688-.684H4.07c-.379 0-.687.307-.687.684V42.66c0 .377.308.685.687.685h14.486v3.15H4.07c-2.125 0-3.848-1.717-3.848-3.835V4.339C.222 2.221 1.945.505 4.07.505h30.236c2.126 0 3.848 1.716 3.848 3.834v11.916h-3.16V4.339zM7.809 14.365c0-1.044.849-1.89 1.896-1.89h15.172c1.048 0 1.898.846 1.898 1.89 0 1.043-.85 1.89-1.898 1.89H9.705c-1.047 0-1.896-.847-1.896-1.89zm13.908 9.45H9.705c-1.047 0-1.896-.846-1.896-1.89s.849-1.89 1.896-1.89h12.012c1.047 0 1.897.846 1.897 1.89s-.85 1.89-1.897 1.89zm-13.908 5.67c0-1.044.849-1.89 1.896-1.89h10.116c1.047 0 1.896.846 1.896 1.89 0 1.043-.849 1.89-1.896 1.89H9.705c-1.047 0-1.896-.847-1.896-1.89z"/>
</svg>
