<svg xmlns="http://www.w3.org/2000/svg" width="155" height="155">
    <path fill="#F6F6F6" fill-rule="evenodd" d="M77.5 0C120.302 0 155 34.698 155 77.5S120.302 155 77.5 155 0 120.302 0 77.5 34.698 0 77.5 0z"/>
    <path fill="#6D6B6B" fill-rule="evenodd" d="M76 81c0-.327-.167-.603-.41-.786l.01-.014-8-6-.01.014c-.167-.125-.365-.214-.59-.214-.552 0-1 .448-1 1 0 .327.167.603.41.786l-.01.015L73.333 81 66.4 86.2l.01.014c-.243.183-.41.46-.41.786 0 .553.448 1 1 1 .225 0 .422-.088.59-.214l.01.014 8-5.999-.01-.014c.243-.183.41-.46.41-.787zm20-25H60c-2.209 0-4 1.791-4 4v36c0 2.209 1.791 4 4 4h36c2.209 0 4-1.791 4-4V60c0-2.209-1.791-4-4-4zm2 40c0 1.105-.895 2-2 2H60c-1.105 0-2-.895-2-2V60c0-1.105.895-2 2-2h36c1.105 0 2 .895 2 2v36zm-15-8h-6c-.552 0-1 .448-1 1 0 .553.448 1 1 1h6c.552 0 1-.447 1-1 0-.552-.448-1-1-1z"/>
</svg>
