<svg xmlns="http://www.w3.org/2000/svg" width="155" height="155">
    <path fill="#F6F6F6" fill-rule="evenodd" d="M77.5 0C120.302 0 155 34.698 155 77.5S120.302 155 77.5 155 0 120.302 0 77.5 34.698 0 77.5 0z"/>
    <path fill="#6D6B6B" fill-rule="evenodd" d="M78 56c-12.15 0-22 9.85-22 22s9.85 22 22 22 22-9.85 22-22-9.85-22-22-22zm19.95 21H80.414l12.398-12.397C95.805 67.92 97.713 72.236 97.95 77zM78 98.001c-11.046 0-20-8.955-20-20.001 0-11.045 8.954-20 20-20 5.165 0 9.855 1.973 13.398 5.189L77.293 77.293c-.181.181-.293.432-.293.707 0 .553.448 1 1 1h19.95C97.425 89.578 88.708 98.001 78 98.001z"/>
</svg>
