<svg xmlns="http://www.w3.org/2000/svg" width="155" height="155">
    <path fill="#F6F6F6" fill-rule="evenodd" d="M77.5 0C120.302 0 155 34.698 155 77.5S120.302 155 77.5 155 0 120.302 0 77.5 34.698 0 77.5 0z"/>
    <path fill="#6D6B6B" fill-rule="evenodd" d="M98 64v24c0 1.106-.895 2-2 2H79v2.586l5.707 5.707c.181.182.293.432.293.707 0 .553-.448 1-1 1-.276 0-.526-.111-.707-.293L78 94.414l-5.293 5.293c-.181.182-.431.293-.707.293-.552 0-1-.447-1-1 0-.275.112-.525.293-.707L77 92.586V90H60c-1.105 0-2-.894-2-2V64c-1.105 0-2-.895-2-2v-2c0-1.105.895-2 2-2h18c0-1.104.896-2 2-2s2 .896 2 2h18c1.105 0 2 .895 2 2v2c0 1.105-.895 2-2 2zM60 88h36V64H60v24zm38-28H58v2h40v-2zM82 75h2v7h-2v-7zm-6-2h2v9h-2v-9zm-6 4h2v5h-2v-5z"/>
</svg>
