<svg xmlns="http://www.w3.org/2000/svg" width="155" height="155">
    <path fill="#F6F6F6" fill-rule="evenodd" d="M77.5 0C120.302 0 155 34.698 155 77.5S120.302 155 77.5 155 0 120.302 0 77.5 34.698 0 77.5 0z"/>
    <path fill="#6D6B6B" fill-rule="evenodd" d="M69 67h5c.553 0 1-.447 1-1 0-.552-.447-1-1-1h-5c-.553 0-1 .448-1 1 0 .553.447 1 1 1zm12 22H69c-.553 0-1 .448-1 1 0 .553.447 1 1 1h12c.553 0 1-.447 1-1 0-.552-.447-1-1-1zm6-8H69c-.553 0-1 .448-1 1 0 .553.447 1 1 1h18c.553 0 1-.447 1-1 0-.552-.447-1-1-1zm-1-25H64c-2.209 0-4 1.791-4 4v36c0 2.209 1.791 4 4 4h28c2.209 0 4-1.791 4-4V67L86 56zm8 40c0 1.106-.896 2-2 2H64c-1.105 0-2-.894-2-2V60c0-1.105.895-2 2-2h18v10c0 1.105.896 2 2 2h10v26zM84 68V58h1l9 10H84zm-16 6c0 .553.447 1 1 1h18c.553 0 1-.447 1-1 0-.552-.447-1-1-1H69c-.553 0-1 .448-1 1z"/>
</svg>
