<svg xmlns="http://www.w3.org/2000/svg" width="155" height="155">
    <path fill="#F6F6F6" fill-rule="evenodd" d="M77.5 0C120.302 0 155 34.698 155 77.5S120.302 155 77.5 155 0 120.302 0 77.5 34.698 0 77.5 0z"/>
    <path fill="#6D6B6B" fill-rule="evenodd" d="M86 56H64c-2.209 0-4 1.791-4 4v35.999c0 2.209 1.791 4.001 4 4.001h28c2.209 0 4-1.792 4-4.001V67L86 56zm8 39.999c0 1.106-.896 2-2 2H64c-1.104 0-2-.894-2-2V60c0-1.105.896-2 2-2h18v10c0 1.104.896 2 2 2h10v25.999zM84 68V58h1l9 10H84z"/>
    <path fill="#6D6B6B" fill-rule="evenodd" d="M76.23 90.706c-.298.293-.781.293-1.079 0l-4.457-4.371c-.187-.183-.636-.687-.786-1.42-.117-.573-.076-1.433.786-2.277 1.526-1.498 3.488-.558 3.571-.517l.148.094 1.054.862v-6.318c0-3.112 1.46-3.765 2.685-3.765 2.015 0 2.879 1.627 3.055 2.487l.015.146V79.8c6.457.354 6.534 5.201 6.534 5.252v4.906c0 .413-.341.748-.763.748-.421 0-.763-.335-.763-.748v-4.906c-.002-.149-.123-3.776-5.771-3.776h-.764v-5.56c-.074-.27-.419-1.225-1.543-1.225-.573 0-1.158.269-1.158 2.268v7.718c0 .713-.848 1.102-1.407.646l-2.069-1.691c-.244-.096-1.106-.365-1.745.264-.417.408-.41.724-.368.926.055.271.233.522.368.654l4.457 4.372c.298.292.298.766 0 1.058z"/>
    <path fill="#6D6B6B" fill-rule="evenodd" d="M76.23 90.706c-.298.293-.781.293-1.079 0l-4.457-4.371c-.187-.183-.636-.687-.786-1.42-.117-.573-.076-1.433.786-2.277 1.526-1.498 3.488-.558 3.571-.517l.148.094 1.054.862v-6.318c0-3.112 1.46-3.765 2.685-3.765 2.015 0 2.879 1.627 3.055 2.487l.015.146V79.8c6.457.354 6.534 5.201 6.534 5.252v4.906c0 .413-.341.748-.763.748-.421 0-.763-.335-.763-.748v-4.906c-.002-.149-.123-3.776-5.771-3.776h-.764v-5.56c-.074-.27-.419-1.225-1.543-1.225-.573 0-1.158.269-1.158 2.268v7.718c0 .713-.848 1.102-1.407.646l-2.069-1.691c-.244-.096-1.106-.365-1.745.264-.417.408-.41.724-.368.926.055.271.233.522.368.654l4.457 4.372c.298.292.298.766 0 1.058z"/>
</svg>
